<svg width="540" height="100" viewBox="0 0 540 100" xmlns="http://www.w3.org/2000/svg" role="img" aria-label="Great Canadian Property Services">
  <g transform="translate(0,8) scale(0.0717)">
    <path fill="#C4956A" d="M720.833,741.667l0,75l-75,0l0,-75l75,0Zm-495.833,179.167l-225,-191.667l95.833,-50l-79.167,-200l195.833,41.667l37.5,-112.5l191.667,191.667l12.5,-4.167l-83.333,-400l158.333,58.333l104.167,-254.167l116.667,262.5l145.833,-66.667l-79.167,400l12.5,8.333l195.833,-200l41.667,120.833l183.333,-50l-70.833,208.333l87.5,41.667l-212.5,187.5l-108.333,-108.333l0,-179.167l-95.833,0l0,87.5l-216.667,-220.833l-408.333,429.167Zm400,-179.167l0,75l-75,0l0,-75l75,0Zm0,95.833l0,75l-75,0l0,-75l75,0Zm95.833,0l0,75l-75,0l0,-75l75,0Z"/>
  </g>
  <g transform="translate(110,38)">
    <text x="0" y="0" font-family="Outfit, Arial, Helvetica, sans-serif" font-size="26" font-weight="500" letter-spacing="2.5" fill="#E8E4DF">GREAT CANADIAN</text>
    <text x="0" y="28" font-family="Outfit, Arial, Helvetica, sans-serif" font-size="14" font-weight="400" letter-spacing="3.2" fill="#C4956A">PROPERTY SERVICES</text>
  </g>
</svg>
